<svg xmlns="http://www.w3.org/2000/svg" viewBox="0 0 255.93 257.18"><defs><style>.cls-1{fill:#3e4b59;}</style></defs><title>dog_1</title><g id="Capa_2" data-name="Capa 2"><g id="Capa_1-2" data-name="Capa 1"><path class="cls-1" d="M242.18,160.88c-8.67-4.28-12.1-11-11.7-19.77.09-2.07-1.23-2.23-2.61-2.5-20.68-4.07-39.38-12.37-55.59-26C162,103.92,154,93.2,146.05,82.41c-1.28-1.74-2.66-3.42-3.75-5.26C137.93,69.79,131.56,66,123,65.58c-9.13-.43-18.25-1-27.94-1.63,0,3.12,0,6.2,0,9.28,0,3.89-1.58,5.82-4.51,5.73S86,76.7,86,73.08c0-13.49.14-27-.22-40.44a65.64,65.64,0,0,0-2.42-15.88c-2.31-8.15-9-9.5-14.83-3.32-6.53,7-10.37,15.54-14.36,24C38.91,69.9,31,104.55,23.7,139.34c-5.08,24.11-9.57,48.35-14.32,72.54-.06.31-.1.64-.18,1-.81,3.25-3.06,4.94-5.75,4.35s-3.94-3.09-3.28-6.39C2.45,199.39,4.62,188,7,176.6c6-28.1,11.66-56.26,18.2-84.23a291.39,291.39,0,0,1,26.23-70c3.69-7,7.75-13.75,14.19-18.63,9-6.79,20.29-4,25.23,6.1,2.9,5.95,3.62,12.38,3.93,18.85.37,7.42.56,14.87.63,22.3,0,2.49.59,3.6,3.36,3.74,8,.38,15.9,1.41,23.86,1.62,12.55.33,21.32,6.28,28.3,16.42a246.91,246.91,0,0,0,20.46,26.19c15.12,16.62,34.6,25.65,56.36,30.06a163.79,163.79,0,0,0,16.89,2.65c10.25,1,12.15,7.94,10.93,14.78a83.8,83.8,0,0,1-4.33,15.82c-3.87,9.84-8.7,19.22-15.78,27.28a39,39,0,0,1-17.17,11.16c-16.84,5.63-33.85,10.74-50.78,16.1-5.23,1.66-10.48,3.3-15.59,5.28-12.59,4.88-19.07,14.19-19.49,27.71,0,1.07,0,2.16-.12,3.23-.3,2.61-1.73,4.13-4.44,4.17s-4.33-1.69-4.38-4.53c-.3-17.83,6.27-31.19,23.79-38.4,9.61-4,19.9-6.25,29.83-9.49,13.19-4.3,26.41-8.57,39.47-13.26,8.46-3,14.45-9.2,18.62-17.12C237.52,170,239.75,165.6,242.18,160.88Zm2.73-9.19c3.93-7.45,2.82-10.28-4.33-11-.18,0-.37.15-.55.23C239,146.4,240.55,149.92,244.91,151.69Z"/></g></g></svg>