<svg xmlns="http://www.w3.org/2000/svg" viewBox="0 0 201.46 247.8"><defs><style>.cls-1{fill:#3e4b59;}</style></defs><title>cat</title><g id="Capa_2" data-name="Capa 2"><g id="Capa_1-2" data-name="Capa 1"><path class="cls-1" d="M79.62,63.84c1.83,3.85,3.5,7.31,5.12,10.79.67,1.44,1.84,3,1.66,4.39a5.23,5.23,0,0,1-2.77,3.7,5,5,0,0,1-4.4-1.2,30.63,30.63,0,0,1-5.18-8.33c-4-10.65-4.31-21.83-4-33,.21-6.52.53-13,.76-19.54a27.12,27.12,0,0,0-.16-4c-1-7.84-5-9.54-11.37-4.78-8.94,6.73-15.37,15.66-21.11,25-12.85,21-22.34,43.31-27.41,67.48-3,14.13-2.32,28.09.42,42.17,2.6,13.38,4.85,26.83,6.85,40.32.62,4.22.05,8.66-.24,13A4.27,4.27,0,0,1,13,203.9c-2.71-.23-3.85-2.05-3.71-4.47,1-17.6-3-34.55-6.77-51.49C-1.75,128.65-.36,109.7,5,90.91c7.39-26.12,18.65-50.42,35.2-72,4-5.21,9.15-9.51,13.78-14.22a3.24,3.24,0,0,1,.5-.37C59.1,1.1,64.06-1.5,69.77,1c6.31,2.77,9.17,8.23,9.48,14.88.24,5.25-.32,10.55-.16,15.82s.24,10.37,1.31,15.36C82,54.58,89.84,60.47,98.05,61.57c10.14,1.36,20.3,2.65,30.37,4.43,9.63,1.71,18.67,5.11,24.93,13.19a56.24,56.24,0,0,1,6,10.44c1.76,3.73,3.15,7.65,4.55,11.54a21.45,21.45,0,0,0,13.08,13.61c4.25,1.61,8.45,3.39,12.58,5.29,8.41,3.89,12.19,10.67,11.94,19.87-.3,10.71-1.3,21.29-4.77,31.46-4.67,13.72-12.29,25.14-25.34,32.46C159.15,210.69,147.25,218,137,227.64c-4.86,4.54-8.63,9.71-10.21,16.32-.71,2.94-2.74,4.27-5.1,3.72a4.72,4.72,0,0,1-3.33-5.81c1.74-8.4,6.89-14.73,12.82-20.45,9.53-9.2,20.72-16.12,32.11-22.71,5.64-3.27,11.19-6.54,15.38-11.82a58.94,58.94,0,0,0,12.09-28.15,15.2,15.2,0,0,1,.38-2.14c.67-2.18-.06-3.21-2.26-4.11-10.69-4.4-15.47-13-13.76-24.57.37-2.52-.1-4-2.71-4.85-9.94-3.46-14.62-11.62-18-20.8A38.3,38.3,0,0,1,153,98.15c-3.61-14.55-13.65-21.57-27.8-23.69C115,72.94,104.82,72,94.8,69.94,89.89,69,85.34,66.2,79.62,63.84Zm112.17,79.79c2-8.17-1-14-7.86-15.27C182.24,136.19,185.38,142.31,191.79,143.63Z"/></g></g></svg>